<?xml version="1.0" encoding="utf-8"?>
<!-- Generator: Adobe Illustrator 22.0.0, SVG Export Plug-In . SVG Version: 6.00 Build 0)  -->
<svg version="1.1" xmlns="http://www.w3.org/2000/svg" xmlns:xlink="http://www.w3.org/1999/xlink" x="0px" y="0px"
	 viewBox="0 0 443.1 385.8" style="enable-background:new 0 0 443.1 385.8;" xml:space="preserve">
<style type="text/css">
	.st0{fill:url(#SVGID_1_);}
</style>
<g id="Warstwa_1_kopia">
</g>
<g id="Tekst">
	<g>
		<g id="XMLID_2_">
			<g>
				<linearGradient id="SVGID_1_" gradientUnits="userSpaceOnUse" x1="0.2545" y1="192.9022" x2="442.8978" y2="192.9022">
					<stop  offset="0" style="stop-color:#FF7BAC"/>
					<stop  offset="1" style="stop-color:#FF7BAC;stop-opacity:0.7545"/>
					<stop  offset="1" style="stop-color:#FF7BAC;stop-opacity:0"/>
				</linearGradient>
				<path class="st0" d="M441.5,195.5c2,3.4,1.8,5.8-0.1,9c-34,58.7-67.9,117.3-101.7,176.1c-2.1,3.7-4.4,4.9-8.6,4.9
					c-67.7-0.1-135.3-0.1-203,0c-4.1,0-6.2-1.4-8.1-4.8C86.1,321.9,52.1,263,18,204.2c-1.8-3.2-1.9-5.5,0-8.6
					c4.6-7.4,8.8-15.1,13.6-23.4c-13.3-1.2-18.3-10.3-22.1-20.5c-3.4-9.2-6.2-18.6-9.3-28.1c17.5,1.2,37.7,12.4,38.8,35.4
					c17.7-30.5,35.3-61,52.9-91.4c-0.4-0.6-0.5-1-0.7-1.1c-13-2.8-19.1-12.2-21.8-24.1c-3.1-13.9-5.4-28-8.2-42.3
					c17.4,4,42.3,19,42,47.4c3.7-6.2,6.7-11.4,9.8-16.6c3.3-5.4,5.4-12.7,10.3-15.5c4.6-2.7,12-0.9,18.1-0.9
					c62.8,0,125.7,0.1,188.5-0.1c5.4,0,8.7,1.4,10.8,6.4c1.3,3.2,3.4,6.1,5.5,9.7c-3,1-5.6,1.9-8.3,2.8c-0.5-0.6-0.9-0.9-1-1.4
					c-2.6-7.9-8.4-8.8-16-8.8c-62.2,0.3-124.3,0.3-186.5,0c-5.1,0-7.7,1.7-10.1,5.9c-11.2,19.9-22.7,39.6-34.1,59.4
					c-0.7,1.3-1.3,2.6-2.5,4.8c21.4-11.8,39.8-4.3,58.8,6.5c-7.8,4.4-14.7,8.7-21.9,12.3c-7.2,3.7-14.6,7.3-22.2,10.2
					c-10.1,3.8-19.7,2.4-28.1-6.2c-7.2,12.5-13.9,24.2-20.7,35.9c-8.5,14.7-16.9,29.5-25.5,44.1c-1.7,2.8-1.7,4.9,0,7.7
					c32.6,56.2,65,112.5,97.4,168.8c1.7,3,3.7,4.2,7.1,4.2c9.3-0.2,18.7-0.2,28,0c3.7,0.1,5.3-1.1,5.9-4.9c4.4-28.4,11.6-56,21.5-83
					c1.6-4.4,1.6-8.2-0.2-12.4c-2.3-5.3-4.2-10.9-5.8-16.5c-1-3.4-2.7-5.4-6-6.5c-7.3-2.3-14.4-5.1-21.7-7.4
					c-1.5-0.5-3.8-0.4-5.1,0.4c-21.9,13.2-45.2,7.9-61.8-10.4c-8.8-9.7-14.9-21.1-20-34c5.7,0.7,10.7,1.1,15.7,2
					c14.9,2.5,29.9,4.5,44.7,7.9c12.4,2.8,22.3,9.5,26.2,22.7c0.3,0.9,0.9,2,1.7,2.3c6.9,2.6,13.9,5.1,21.6,8
					c-1.8-9.4-3.4-17.6-5.1-25.9c-0.2-1-1.2-2-2.1-2.7c-19.5-15.4-22.2-35.3-15.3-57.5c4.5-14.6,12.4-27.5,21.4-39.7
					c0.5,0.1,1,0.1,1.1,0.3c10.8,18.3,20.6,37,22.1,58.8c1,14.8-3.9,27.2-15,37c-2.7,2.4-3.6,4.8-2.6,8.3c3.8,13.8,7.3,27.6,11,41.4
					c0.4,1.5,1.2,2.9,2.2,5.2c3.6-8.1,6.8-15.4,10.2-22.6c12.5-27,27.5-52.5,44.2-77c1.9-2.9,2.1-5.3,1.3-8.7
					c-2.5-10.1-4.7-20.4-5.9-30.8c-0.9-7.9-0.5-16-0.2-24c0.3-7,0.6-13.3-5.5-18.9c-4.7-4.4-5.4-11.2-3.8-17.8
					c4.1-16.9,16.3-27.5,29.6-39.1c1.7,15.7,5,30.1,2.2,44.8c-1.3,6.6-4.8,11.9-9.8,16.4c-1.6,1.4-3.4,3.7-3.5,5.6
					c-1.2,17.8-1.8,35.6,2.6,53.2c0.4,1.6,1.1,3.1,1.9,5.5c1.5-1.7,2.6-2.8,3.5-4c11.5-14.5,23-29,34.6-43.3c2.3-2.8,3.4-5.4,3.1-9
					c-2.4-26.6,12.7-45.6,34.7-55.8c16.8-7.8,34.7-10,53.9-10.7c-1.6,3-2.7,5.4-4.1,7.5c-8.9,14-17.3,28.5-27,41.9
					c-11.8,16.2-27.7,26.2-48.3,27.5c-1.8,0.1-3.8,1.9-5.1,3.4C277,144.7,253,177.2,233,212.6c-3.4,6.1-6.8,12.2-10.9,19.7
					c3-1,4.7-1.4,6.2-2c22.1-9.1,42.7-21,62.4-34.5c3.7-2.5,5.1-5,4-9.8c-2.4-10.5,1.7-19.3,8.9-26.8c3.1-3.3,6.3-6.5,9.9-9.1
					c15.2-11.1,30.5-22,47-33.9c0.5,6.4,1,11.7,1.2,17.1c0.3,12.6-0.8,25-6.3,36.6c-8.3,17.6-22.6,26.4-41.7,26.6
					c-7.1,0.1-12.6,1.9-18.2,6.1c-22.7,17.3-48,29.9-74.6,40c-3.3,1.3-5.5,3.1-7,6.4c-12.4,26.5-22.6,53.7-29.9,82
					c-0.4,1.4-0.6,2.8-1,4.8c1.5-0.2,2.4-0.3,3.3-0.5c23.8-7.9,45.5-19.5,64.5-36.1c1.2-1,2.7-3.2,2.3-4.3
					c-5.3-17,2.4-29.8,13.8-40.6c11.4-10.7,23.8-20.4,35.7-30.5c3.8-3.2,7.7-6.2,12.2-9.8c3.6,21.6,4.2,42.2-6,61.5
					c-9,17.2-24.3,24.9-43.2,26.1c-1.6,0.1-3.6-0.1-4.8,0.8c-5.5,4.2-10.8,8.7-17.4,14.1c6.8,1,12.3,1.5,17.7,2.5
					c6.1,1.1,11.1,0.6,16.4-3.8c8.7-7.1,19.3-7,29.5-3.7c12.9,4.1,23.6,12,33.7,22.2c-2.9,1.3-5.4,2.5-7.9,3.4
					c-12.3,4.3-24.6,8.3-38,6.9c-9-1-16-4.9-21.9-11.6c-1.7-1.9-4.4-3.6-6.9-4c-10.4-1.6-20.8-2.9-31.2-4c-1.8-0.2-4,0.3-5.6,1.2
					c-14.5,8.3-29.7,15-45.7,19.9c-1.4,0.4-3.4,1.6-3.6,2.8c-2.1,9.2-3.8,18.4-5.8,28.7c7,0,12.8,0,18.5,0c44.3,0,88.7-0.1,133,0
					c4.4,0,6.7-1.3,9-5.2c31.7-55.2,63.5-110.3,95.5-165.3c2.7-4.6,2.9-7.9,0.1-12.6c-20-34.1-39.6-68.3-59.3-102.5
					c-3.9-6.8-3.9-6.8,2.3-13.2c0.9,1.4,1.9,2.8,2.7,4.2C397.8,120,419.6,157.8,441.5,195.5z"/>
			</g>
			<g>
			</g>
		</g>
	</g>
	<g>
	</g>
	<g>
	</g>
	<g>
	</g>
	<g>
	</g>
	<g>
	</g>
	<g>
	</g>
	<g>
	</g>
	<g>
	</g>
	<g>
	</g>
	<g>
	</g>
	<g>
	</g>
	<g>
	</g>
	<g>
	</g>
	<g>
	</g>
	<g>
	</g>
</g>
</svg>
